<svg width="85" height="39" viewBox="0 0 85 39" fill="none" xmlns="http://www.w3.org/2000/svg">
<path d="M19.932 12.9957C19.1852 12.2351 18.3221 11.5457 17.3548 10.9397C16.015 10.101 14.3009 9.67452 12.2603 9.67452C10.659 9.67452 9.10381 9.99082 7.6375 10.6145C6.16605 11.24 4.85184 12.1836 3.73074 13.4186C2.61476 14.6482 1.70387 16.1711 1.0254 17.9463C0.345217 19.7215 0 21.7881 0 24.0857V24.187C0 26.4864 0.345217 28.5512 1.02369 30.3264C1.70216 32.1034 2.6216 33.628 3.75466 34.8559C4.88943 36.0891 6.2122 37.0309 7.68364 37.6582C9.14996 38.2819 10.6898 38.5982 12.2586 38.5982C14.2684 38.5982 15.9671 38.1629 17.3087 37.3064C18.2828 36.6826 19.1612 35.9239 19.9303 35.0407V38.0936H28.1557V0.396973H19.9303V12.9957H19.932ZM19.5475 21.1733C19.8671 22.0493 20.0294 23.0284 20.0294 24.0875V24.1888C20.0294 25.2479 19.8671 26.227 19.5475 27.103C19.2279 27.9773 18.7989 28.7343 18.2709 29.3509C17.7479 29.9604 17.1275 30.4366 16.4269 30.7636C15.7262 31.0905 14.9622 31.2576 14.1539 31.2576C13.3455 31.2576 12.5799 31.0923 11.8792 30.7636C11.1751 30.4348 10.5462 29.9568 10.0062 29.3455C9.46441 28.7307 9.02691 27.9755 8.70904 27.103C8.38945 26.227 8.2271 25.2479 8.2271 24.1888V24.0875C8.2271 22.9982 8.38945 22.0102 8.70733 21.1502C9.0252 20.2937 9.4627 19.5456 10.0062 18.929C10.5462 18.3159 11.1751 17.8397 11.8792 17.5109C12.5799 17.1822 13.3455 17.0169 14.1522 17.0169C14.9588 17.0169 15.7245 17.184 16.4251 17.5109C17.1275 17.8397 17.7479 18.3141 18.2692 18.9236C18.7989 19.542 19.2279 20.2972 19.5475 21.1715V21.1733Z" fill="white"/>
<path d="M47.3709 9.67628C46.3951 9.67628 45.5047 9.80245 44.7237 10.0512C43.9444 10.3 43.2249 10.6412 42.5823 11.0659C41.9432 11.4888 41.3553 11.9792 40.8357 12.523C40.6119 12.7575 40.3948 12.9992 40.1846 13.2462V10.1792H31.9592V38.0953H40.1846V22.6108C40.1846 20.9245 40.5623 19.6468 41.3074 18.8134C42.0543 17.9783 43.0557 17.5713 44.3648 17.5713C45.6739 17.5713 46.6429 17.9747 47.3419 18.8028C48.0443 19.6362 48.3998 20.9174 48.3998 22.609V38.0935H56.6252V20.1515C56.6252 16.9281 55.8134 14.3515 54.212 12.4928C52.5988 10.6216 50.2967 9.67273 47.3709 9.67273V9.67628Z" fill="white"/>
<path d="M79.2479 28.1585L78.9437 28.4517C78.0687 29.2975 77.1749 29.9799 76.2897 30.4792C75.4369 30.9625 74.42 31.206 73.2682 31.206C72.3316 31.206 71.4771 31.0247 70.7303 30.6658C69.9801 30.3068 69.3255 29.8093 68.7838 29.1838C68.242 28.5583 67.8216 27.812 67.5362 26.9626C67.2474 26.1078 67.1004 25.1732 67.1004 24.1852V24.0839C67.1004 23.1296 67.2474 22.2216 67.5362 21.3847C67.8233 20.5513 68.2369 19.8103 68.765 19.183C69.2896 18.5593 69.9134 18.06 70.6192 17.701C71.3165 17.3456 72.1112 17.1661 72.9776 17.1661C74.2184 17.1661 75.2643 17.4167 76.0846 17.9125C76.9357 18.4278 77.7765 19.1315 78.5865 20.0057L78.8993 20.3434L83.9836 14.6588L83.7204 14.3568C82.4591 12.9085 80.9791 11.7535 79.3197 10.9254C77.6517 10.0938 75.5343 9.6709 73.0238 9.6709C70.9713 9.6709 69.064 10.0565 67.3516 10.8153C65.6409 11.5758 64.1507 12.626 62.9219 13.9392C61.6931 15.2524 60.7156 16.809 60.02 18.5682C59.3228 20.3291 58.969 22.2181 58.969 24.1834V24.2847C58.969 26.2518 59.3228 28.1318 60.02 29.8768C60.7173 31.62 61.6931 33.1606 62.9236 34.456C64.1541 35.7532 65.6443 36.7945 67.3516 37.5533C69.0623 38.3138 70.9388 38.6994 72.9264 38.6994C75.5719 38.6994 77.7628 38.2143 79.4376 37.2583C81.0885 36.3147 82.5788 35.0869 83.8639 33.612L84.1357 33.301L79.2445 28.1567L79.2479 28.1585Z" fill="white"/>
</svg>
